<svg width="2e4" height="2e4" version="1.1" viewBox="-1e4 -1e4 2e4 2e4" xmlns="http://www.w3.org/2000/svg" xmlns:xlink="http://www.w3.org/1999/xlink">
 <g>
  <circle r="1e4" fill="#fffacd" fill-rule="evenodd" stroke="#000" stroke-width="36"/>
 </g>
 <g>
  <rect x="-4e3" y="-1e4" width="7e3" height="4e3" fill="#b22234"/>
  <path d="m-4e3 -9e3h7e3m0 600h-7e3m0 600h7e3m0 600h-7e3m0 600h7e3m0 600h-7e3" stroke="#fff" stroke-width="300"/>
  <rect x="-4e3" y="-1e4" width="3e3" height="2e3" fill="#3c3b6e"/>
  <g transform="translate(-4e3 -1e4)" fill="#fff">
   <g id="s18">
    <g id="s9">
     <g id="s5">
      <g id="s4">
       <path id="s" d="m247 90 71 217-185-134h228l-185 134z"/>
       <use y="420" width="100%" height="100%" xlink:href="#s"/>
       <use y="840" width="100%" height="100%" xlink:href="#s"/>
       <use y="1260" width="100%" height="100%" xlink:href="#s"/>
      </g>
      <use y="1680" width="100%" height="100%" xlink:href="#s"/>
     </g>
     <use x="247" y="210" width="100%" height="100%" xlink:href="#s4"/>
    </g>
    <use x="494" width="100%" height="100%" xlink:href="#s9"/>
   </g>
   <use x="988" width="100%" height="100%" xlink:href="#s18"/>
   <use x="1976" width="100%" height="100%" xlink:href="#s9"/>
   <use x="2470" width="100%" height="100%" xlink:href="#s5"/>
  </g>
 </g>
 <g>
  <g fill="none" stroke="#696969" stroke-width="1e3">
   <circle cx="240" cy="5e3" r="2e3"/>
   <path d="m2e3 7e3 3e3 3e3" stroke-linecap="round" stroke-linejoin="round"/>
  </g>
 </g>
 <text x="-9800" y="1000" font-family="sans-serif" font-size="7e3px" style="line-height:1.25" xml:space="preserve">About</text>
</svg>
