<svg version="1.1" viewBox="-60 -60 120 120" xmlns="http://www.w3.org/2000/svg">
 <g fill="darkorange" stroke="#000" stroke-width="2">
  <path d="m5 39c-1 3-2 5-2 6 0.2 5 4 8 8 3-2-3-4-5-6-10z"/>
  <path d="m11 26c-0.1-1e-3 -0.3 3e-3 -0.4 0.01-4 0.3-8 5-4 12 2 4 4 6 5 8s3 4 5 4c6 1 8-2 10-5s-3-8-5-11c-3-3-6-8-10-8z"/>
  <path d="m8 6c-4 0.09-9 7-2 14 2 2 4 3 7 5 5 0.5 10 8 14 14 2 2 6 1 8-0.5 2-2 6-5 5-9s-3-6-8-10c-8-7-19-11-22-13-0.5-0.2-1-0.3-2-0.3z"/>
  <path d="m13-8c-6-0.07-10 8-4 12 3 2 7 2 17 8 5 3 11 8 13 10 2-0.02 8-3 8-8-0.4-4-0.6-5-4-8-4-4-11-6-13-7-3-1-9-5-13-6-0.9-0.4-2-0.5-3-0.5z"/>
  <path d="m-26-5c-6 4-9 8-16 12-3 10 0.03 12 0.8 15 2 6 0.9 9 3 14 2 5 5 2 7 8 4 10 16 6 13-6s-10-12-16-11c4-3 8-2 8-2-1-4-1-6-2-14-1-9 0.8-10 3-16z"/>
  <path d="m39-16c-0.4 0.04-0.5 0.6-0.5 1 1 0.9 2 2 5 4-12-6-20-7-23-0.5-2 4 2 6 4 7 4 2 13 5 16 7 2 1 7 0.1 9-4 2-4-0.8-8-2-9-2-2-5-4-7-5-0.2-0.1-0.4-0.2-0.6-0.2z"/>
  <path d="m-102-94c45 49 51 52 54 57 5 6 10 12 11 16 5-3 11-10 18-12 9-3 14-5 17-9-5 0.02-7-1-10-2 3-0.5 5-0.3 6-0.6-13-14-20-29-41-63-7-12-81-14-56 14z"/>
  <path d="m38-108c-14 26-24 47-29 54-5 7-8 14-12 17s-13 5-19 8c-5 2-10 8-17 12-5 4-4 7-5 10-2 2-3 3-6 8 1 3 7 4 12-1 5-4 5-5 8-7l6-4c0.3-4 1-9 4-13-2 6-2 9-3 14-0.5 3-3 8-3 11s0.8 11 1 16c0.7 5 4 6 6 9 1-4 3-10 2-14-0.1-2 1 0.3 1 1-0.07 5-2 11-2 16 1 3 2 5 2 8 2 3 5 1 6 0.7-0.9-9 5-16 9-20-3 5-8 12-8 17 0 4 2 7 6 7 3 0.4 4-1 4-3 0.4-1 0.9-2 1-4-3-7 2-12 5-12-5-3-9-6-9-11-0.6-4 2-8 6-10-5-5-0.7-15 9-13 2 0.4 3 1 4 1-0.6-7 5-10 11-9 3 0.3 6 1 7 2 0.4-2 1-6 3-9 4-11 50-62 62-79 8-11-57-15-62-4z"/>
 </g>
</svg>
